<svg xmlns="http://www.w3.org/2000/svg">
    <symbol id="factory" width="25" height="24" viewBox="0 0 25 24">
        <path d="M2.49513 23.9919H2.16563C2.03861 23.8569 1.90656 23.7295 1.94366 23.5133C2.04427 22.9297 2.13607 22.3456 2.23165 21.7614C2.53914 19.8864 2.84726 18.0114 3.15349 16.1358C3.43205 14.4295 3.70999 12.7232 3.9873 11.0169C4.05772 10.582 4.12563 10.1472 4.19606 9.70047H1.56574V10.0622H2.32912V10.8313H1.56951V11.2106C1.78017 11.2106 1.97573 11.2025 2.1694 11.2156C2.22851 11.2193 2.32975 11.2781 2.33226 11.3174C2.34798 11.5386 2.33981 11.7623 2.33981 12.0066H1.56385C1.55442 12.144 1.54688 12.2577 1.53933 12.3708H0.781613C0.772181 12.2459 0.764006 12.1321 0.753945 11.9953H0V11.1987H0.7464V10.8238H0V10.0741H0.747657V9.69547C0.620637 9.6861 0.51311 9.67797 0.39678 9.66923V8.89511H4.25957V4.27605H2.74351V4.64655H3.48613V5.43441H2.74288V5.80803H3.4855V6.58902H2.74162C2.73156 6.7271 2.72275 6.84019 2.71395 6.96077H1.94995C1.93988 6.83394 1.93045 6.72085 1.91976 6.5834H1.18405V5.79866H1.91725V5.41379H1.18594V4.63218H1.9185V4.26856C1.79337 4.26293 1.68647 4.25856 1.57454 4.25356V3.46195H4.27844C4.27844 3.08708 4.26523 2.73657 4.28535 2.38794C4.2929 2.26049 4.34257 2.09617 4.43312 2.01932C5.23863 1.33705 6.05797 0.671023 6.87354 0C6.96786 0 7.06156 0 7.15588 0C7.92429 0.639783 8.68892 1.28394 9.46299 1.91685C9.64975 2.06992 9.73904 2.23987 9.73149 2.47916C9.72143 2.80405 9.72898 3.12894 9.72898 3.4757H12.4215V4.25294C12.2882 4.26043 12.1744 4.26731 12.0612 4.27355V4.6403H12.824V5.42691H12.0675V5.81616H12.824V6.58715H12.0631C12.0537 6.72897 12.0461 6.84268 12.0386 6.95765H11.2784C11.2677 6.82831 11.2582 6.71523 11.2463 6.57777H10.5169V5.79804H11.2482V5.42192H10.5125V4.63656H11.2476V4.28168H9.74658V8.90574H13.5905V9.67235C13.4629 9.68235 13.3503 9.6911 13.2396 9.69984V10.0641H13.9772V10.8438H13.2377V11.2131H13.9823V12.0016H13.2359C13.2264 12.1446 13.2183 12.2577 13.2113 12.3646H12.4436C12.4354 12.2321 12.4278 12.1196 12.419 11.9872H11.6814V11.2056H12.4209V10.8276H11.6796V10.0547H12.4203V9.69922H9.795C10.2773 12.6595 10.7571 15.6035 11.2394 18.565C11.3916 18.565 11.5236 18.565 11.6557 18.565C11.7789 18.565 11.9028 18.565 12.0153 18.565C12.0336 18.5294 12.0461 18.5162 12.0461 18.5025C12.0487 18.1826 12.0505 17.8621 12.0518 17.5422C12.0531 17.1423 12.1795 17.0174 12.5901 17.0167C13.1233 17.0161 13.6572 17.0167 14.1904 17.0161C14.2734 17.0161 14.3564 17.0092 14.401 17.0074C14.6274 16.0871 14.7972 15.188 15.0726 14.3214C15.592 12.6857 15.7341 11.0606 15.1833 9.40744C15.089 9.12379 15.2946 8.90261 15.6235 8.90261C17.9067 8.90136 20.1899 8.90074 22.4731 8.90261C22.8554 8.90261 23.0114 9.11754 22.8944 9.48866C22.4329 10.9475 22.4524 12.3989 22.9051 13.8597C23.5333 15.8859 23.9175 17.962 24.0401 20.0782C24.1049 21.1997 24.0791 22.3262 24.1068 23.4496C24.1124 23.6795 24.0565 23.8588 23.8678 23.9919H7.2502C7.04961 23.8694 6.9861 23.6889 6.98987 23.4596C6.9993 22.9379 6.99302 22.4155 6.99239 21.8938C6.99239 21.8207 6.98484 21.7483 6.97981 21.6489C5.91901 22.1962 4.89153 22.7223 3.86719 23.2553C3.4069 23.4945 2.95227 23.7463 2.49513 23.9919ZM15.5549 18.565C15.8882 18.565 16.1932 18.565 16.4975 18.565C17.0094 18.565 17.1112 18.6681 17.1112 19.1854C17.1112 20.4268 17.1112 21.6683 17.1112 22.9097C17.1112 23.0016 17.1112 23.0934 17.1112 23.1922H23.2994C23.3057 23.149 23.3138 23.1197 23.3145 23.0897C23.3893 20.195 23.1007 17.3435 22.2901 14.5551C22.0487 13.7235 21.8022 12.8944 21.7776 12.0203C21.7707 11.7654 21.7764 11.5105 21.7764 11.2443H16.3302C16.3302 11.3255 16.3284 11.3936 16.3302 11.4611C16.3548 12.3027 16.2145 13.1199 15.9982 13.9315C15.7417 14.8937 15.5103 15.8634 15.2738 16.8312C15.2569 16.9005 15.2694 17.0299 15.3103 17.0505C15.5323 17.1648 15.5568 17.3529 15.5549 17.5653C15.5518 17.8914 15.5543 18.2176 15.5543 18.565H15.5549ZM7.78658 23.1934H16.3158V19.351C16.0712 19.351 15.8379 19.351 15.6046 19.351C15.0508 19.351 14.7739 19.0794 14.7739 18.5362C14.7739 18.2969 14.7739 18.0576 14.7739 17.8158H12.8705C12.8586 17.8408 12.8466 17.854 12.8466 17.8671C12.8435 18.1795 12.8416 18.4912 12.8397 18.8036C12.8372 19.2254 12.7133 19.351 12.2945 19.351C10.8822 19.351 9.47053 19.351 8.05822 19.351C7.9683 19.351 7.87838 19.351 7.78658 19.351V23.1934ZM10.41 18.5625C10.4282 18.5381 10.4471 18.5131 10.4653 18.4887C10.3892 18.4175 10.3251 18.325 10.2358 18.2782C9.21649 17.7459 8.19593 17.2167 7.16908 16.6987C7.07728 16.6525 6.92133 16.6531 6.82952 16.6993C5.85235 17.1923 4.88775 17.7115 3.90555 18.1945C3.64459 18.3232 3.54273 18.485 3.51694 18.7562C3.50248 18.908 3.53644 18.9736 3.66849 19.0398C4.39477 19.4066 5.11538 19.7827 5.83789 20.1563C5.91083 20.1938 5.98 20.2381 6.06112 20.2856C5.93473 20.5268 5.82091 20.743 5.70395 20.9667C4.90599 20.5562 4.13947 20.1619 3.35723 19.7602C3.18619 20.8155 3.02144 21.8314 2.85481 22.8598C2.91266 22.8523 2.92963 22.8541 2.94221 22.8473C4.24951 22.1731 5.55681 21.5002 6.85971 20.8173C6.92699 20.7823 6.98547 20.6636 6.98736 20.5824C6.99868 20.0676 6.9905 19.5521 6.9949 19.0367C6.99742 18.7593 7.10494 18.615 7.33069 18.5718C7.40677 18.5575 7.48663 18.5618 7.56523 18.5618C8.51348 18.5618 9.46236 18.5618 10.4106 18.5618L10.41 18.5625ZM4.25768 14.2545C4.28975 14.2833 4.34006 14.3501 4.40671 14.3851C5.21788 14.8081 6.02968 15.2317 6.84839 15.6397C6.93768 15.6841 7.093 15.6691 7.18732 15.6216C7.97774 15.2255 8.75872 14.8106 9.54851 14.4139C9.71011 14.3326 9.76293 14.2533 9.71326 14.074C9.65729 13.8722 9.65352 13.6573 9.60321 13.4536C9.58246 13.3692 9.51832 13.2674 9.44475 13.2286C8.68389 12.8263 7.91926 12.432 7.15022 12.0453C7.07413 12.0072 6.94837 11.9991 6.87543 12.0353C6.09256 12.4283 5.31409 12.8307 4.53876 13.238C4.47274 13.2724 4.40546 13.3549 4.39099 13.4255C4.33817 13.6766 4.30736 13.9328 4.25768 14.2552V14.2545ZM9.13538 10.0254C9.11588 9.98787 9.09702 9.95038 9.07753 9.9129C9.00459 9.7492 8.97503 9.53177 8.85053 9.43118C8.29088 8.97946 7.70232 8.56273 7.12884 8.12725C7.02886 8.05165 6.96409 8.05415 6.86537 8.12975C6.3554 8.51899 5.84732 8.91198 5.32101 9.27811C5.094 9.43556 4.95944 9.61487 4.9695 9.88603C4.97201 9.95226 5.01289 10.0491 5.06508 10.0772C5.66559 10.3965 6.27051 10.7083 6.87857 11.0131C6.94271 11.045 7.04961 11.0475 7.11312 11.0163C7.72181 10.712 8.32421 10.3959 8.93101 10.0872C8.99327 10.0553 9.06747 10.0454 9.13601 10.0254H9.13538ZM16.2447 10.4471C17.2131 10.4471 18.1532 10.4471 19.0926 10.4471C19.9465 10.4471 20.8005 10.449 21.6544 10.444C21.7292 10.444 21.8581 10.4134 21.8701 10.3715C21.9304 10.1528 21.9606 9.92539 22.0009 9.70297H16.0913C16.1441 9.95975 16.1925 10.1941 16.2447 10.4471ZM5.32289 5.80429C5.87122 6.21477 6.38684 6.60464 6.91064 6.98326C6.95403 7.01513 7.07162 6.99201 7.12632 6.95452C7.38917 6.77208 7.64258 6.57652 7.89913 6.38471C8.15317 6.19478 8.40721 6.00422 8.67572 5.80304C8.0991 5.37318 7.54951 4.96395 6.99868 4.55283C6.44092 4.96957 5.89763 5.37568 5.32352 5.80429H5.32289ZM6.14664 16.1652C5.43734 15.8003 4.78337 15.4635 4.11243 15.1186C3.9873 15.8946 3.86908 16.6269 3.74332 17.4047C4.56203 16.9824 5.32981 16.5863 6.14664 16.1652ZM9.88241 15.118C9.19889 15.4716 8.54618 15.8097 7.85575 16.167C8.67572 16.59 9.44412 16.9868 10.2534 17.4041C10.127 16.6262 10.0075 15.8909 9.88241 15.118ZM8.23366 1.91998C7.78846 1.55135 7.39483 1.22459 6.99679 0.895322C6.59121 1.23396 6.20071 1.5601 5.76935 1.91998H8.23303H8.23366ZM6.34408 7.5462C5.90957 7.22193 5.50651 6.92203 5.07388 6.59902V8.49338C5.50651 8.17099 5.90957 7.86984 6.34408 7.5462ZM5.06948 5.01518C5.51342 4.68279 5.91712 4.38102 6.34282 4.06238C5.91209 3.74248 5.50651 3.44071 5.06948 3.11582V5.01518ZM8.92347 8.49275V6.59777C8.4877 6.92453 8.0796 7.23005 7.65578 7.54745C8.08778 7.86984 8.4921 8.17161 8.92347 8.49275ZM8.92284 5.01018V3.11582C8.48707 3.44196 8.08023 3.74561 7.65515 4.06362C8.08589 4.38539 8.49022 4.68716 8.92284 5.01018ZM6.14475 11.523C5.6744 11.2806 5.25309 11.0638 4.8123 10.8363C4.72929 11.3443 4.65006 11.8241 4.56643 12.3371C5.09652 12.0634 5.59517 11.8066 6.14475 11.523ZM9.43092 12.3371C9.34351 11.8185 9.26303 11.3405 9.17814 10.8382C8.71596 11.0781 8.30597 11.2906 7.85449 11.5248C8.39778 11.8048 8.89454 12.0609 9.43092 12.3377V12.3371ZM5.85801 2.72095C6.268 3.02773 6.62831 3.29763 6.99868 3.57504C7.36653 3.29951 7.7281 3.0296 8.13997 2.72095H5.85801Z" fill="#242424"/>
        <path d="M17.8886 8.1174H17.0982C17.0982 7.93184 17.0982 7.76252 17.0982 7.59258C17.0982 6.71038 17.097 5.82755 17.0982 4.94535C17.0995 4.32744 17.4026 3.96506 18.0138 3.87321C18.2131 3.84323 18.2672 3.75076 18.2735 3.56269C18.2898 3.07349 18.2634 2.57053 18.3703 2.09944C18.5935 1.1179 19.4927 0.410011 20.4995 0.389393C21.6678 0.365651 22.8374 0.382521 24.0063 0.382521C24.0283 0.382521 24.051 0.390643 24.0887 0.39814V1.16913C24.0082 1.16913 23.9259 1.16913 23.8428 1.16913C22.7758 1.16913 21.7087 1.16788 20.6422 1.16913C19.7323 1.171 19.0708 1.82578 19.0614 2.72985C19.0582 3.02663 19.0633 3.3234 19.0601 3.62018C19.0532 4.19248 18.708 4.57798 18.1389 4.63733C17.932 4.65857 17.8855 4.76916 17.8867 4.95285C17.8918 5.91315 17.8893 6.87407 17.8893 7.83437C17.8893 7.91997 17.8893 8.00557 17.8893 8.1174H17.8886Z" fill="#242424"/>
        <path d="M24.0903 3.09399V3.88123C23.8922 3.88123 23.7055 3.87685 23.5193 3.88248C23.2087 3.89122 23.01 4.06367 22.954 4.37044C22.9257 4.52289 22.922 4.68158 22.8798 4.83028C22.7182 5.39572 22.2278 5.77621 21.6398 5.80683C21.2078 5.82932 20.9978 6.04425 20.9959 6.4716C20.994 7.01579 20.9959 7.56061 20.9959 8.11792H20.2483C20.2483 7.42753 20.1998 6.74838 20.2627 6.07923C20.3181 5.49068 20.8871 5.0727 21.5298 5.02334C21.9454 4.99148 22.1102 4.83216 22.1605 4.41605C22.2655 3.54509 22.7704 3.09524 23.6445 3.09462C23.7853 3.09462 23.9256 3.09462 24.0903 3.09462V3.09399Z" fill="#242424"/>
        <path d="M21.3813 15.0931C21.3813 16.3745 20.3375 17.4192 19.0554 17.4217C17.7682 17.4242 16.713 16.3676 16.7168 15.0787C16.72 13.8041 17.7789 12.7564 19.0572 12.762C20.3425 12.7682 21.382 13.8104 21.3813 15.0924V15.0931ZM19.3138 16.5688C19.3484 16.5794 19.3641 16.5894 19.3779 16.5876C20.02 16.4995 20.5438 15.8922 20.5966 15.1768C20.6456 14.5214 20.1753 13.8079 19.5854 13.6511C19.5377 13.6386 19.4452 13.6548 19.4276 13.6867C19.2534 14.0122 19.0906 14.344 18.9088 14.7051C19.2038 14.7051 19.4528 14.7088 19.7018 14.7038C19.8898 14.7001 20.0665 14.7169 20.1677 14.9025C20.2734 15.0956 20.1929 15.2586 20.0816 15.4211C19.8231 15.7997 19.5716 16.1821 19.3132 16.5682L19.3138 16.5688ZM18.5542 13.6579C17.965 13.8354 17.5343 14.3964 17.5097 14.9787C17.4802 15.6666 17.8329 16.2514 18.4278 16.4795C18.6391 16.1633 18.8523 15.8441 19.0943 15.4829C18.8064 15.4829 18.5731 15.4892 18.3398 15.4817C17.9411 15.4679 17.7845 15.2024 17.9612 14.8432C18.1505 14.4583 18.3454 14.0759 18.5548 13.6586L18.5542 13.6579Z" fill="#242424"/>
        <path d="M13.9847 22.4445C13.6162 22.4445 13.2477 22.447 12.8793 22.4438C12.5957 22.4413 12.441 22.2945 12.4378 22.0134C12.4322 21.5217 12.4322 21.03 12.4378 20.5389C12.441 20.2858 12.5925 20.1203 12.8459 20.1171C13.6143 20.1078 14.3828 20.1078 15.1505 20.1171C15.3989 20.1203 15.5461 20.2708 15.5511 20.5176C15.5611 21.0243 15.5618 21.5323 15.5517 22.039C15.5461 22.3139 15.3964 22.4413 15.1128 22.4438C14.7368 22.447 14.3601 22.4445 13.9841 22.4445H13.9847ZM13.2364 21.646H14.7626V20.9156H13.2364V21.646Z" fill="#242424"/>
        <path d="M10.1078 22.4446C9.74687 22.4446 9.38656 22.4458 9.02625 22.4446C8.69927 22.4433 8.55842 22.3177 8.55402 22.0004C8.5471 21.5243 8.5471 21.0482 8.55402 20.5727C8.55842 20.2591 8.70367 20.116 9.01997 20.1141C9.74876 20.1097 10.4782 20.1091 11.207 20.1141C11.517 20.116 11.6691 20.2716 11.6717 20.5777C11.6754 21.0457 11.6754 21.5143 11.6717 21.9822C11.6691 22.304 11.5214 22.4433 11.19 22.4446C10.8297 22.4458 10.4687 22.4446 10.1084 22.4446H10.1078ZM9.36141 20.9095V21.6467H10.8687V20.9095H9.36141Z" fill="#242424"/>
    </symbol>

    <symbol id="cafe" width="27" height="24" viewBox="0 0 27 24">
        <path d="M27 1.19601C26.7956 1.44286 26.6075 1.70663 26.3826 1.93373C25.2977 3.02902 24.203 4.11444 23.1096 5.20126C23.0417 5.26897 22.954 5.31693 22.9087 5.35008C25.8982 10.4534 25.517 15.2197 21.7758 19.7623C22.3005 20.285 22.8684 20.8245 23.4024 21.3958C23.5997 21.6066 23.7758 21.8739 23.8607 22.1462C24.058 22.7788 23.7645 23.4502 23.2079 23.7838C22.6358 24.1273 21.9151 24.061 21.4236 23.5885C20.814 23.0031 20.2206 22.3994 19.6251 21.7992C19.5579 21.7315 19.5191 21.6356 19.5042 21.6123C18.7065 21.9684 18.0127 22.3444 17.2772 22.5947C13.7489 23.7972 10.3931 23.3994 7.23398 21.4197C7.04939 21.3041 6.9525 21.3013 6.79692 21.4621C6.20285 22.0756 5.59818 22.6801 4.9829 23.2732C4.52038 23.7189 3.96734 23.9072 3.33438 23.7006C2.37964 23.3896 2.06705 22.2188 2.7191 21.3781C2.92844 21.1087 3.18728 20.8767 3.42985 20.6341C3.87187 20.1919 4.31812 19.7546 4.75518 19.323C4.40369 18.8243 4.04018 18.3617 3.73254 17.8645C2.40085 15.7091 1.84144 13.3662 2.05856 10.8406C2.13847 9.90826 2.33155 9.00128 2.64838 8.1218C2.70071 7.97652 2.67879 7.88765 2.56988 7.77974C1.82235 7.04414 1.07694 6.30784 0.341435 5.56025C-0.261114 4.94948 -0.0333901 3.99807 0.76718 3.76885C1.19505 3.64614 1.55997 3.7752 1.87327 4.08905C2.84923 5.06867 3.83155 6.04266 4.80893 7.02087C4.87682 7.08858 4.93128 7.16898 5.01685 7.27406C5.12576 7.13936 5.20143 7.04555 5.2962 6.92848C5.24811 6.8784 5.18517 6.80929 5.1194 6.7437C4.12788 5.7542 3.13212 4.76893 2.14555 3.7752C1.53098 3.15668 1.76436 2.1968 2.58049 1.97182C3.00128 1.85615 3.35913 1.98663 3.66324 2.2906C4.64132 3.26811 5.62223 4.2435 6.5996 5.22172C6.6675 5.29013 6.72054 5.37264 6.80187 5.47562C6.91502 5.3395 6.99635 5.24217 7.08758 5.13215C7.03525 5.07714 6.9716 5.00731 6.90441 4.93961C5.91289 3.95011 4.91643 2.96555 3.93127 1.97041C3.33367 1.3674 3.5713 0.395529 4.36409 0.176894C4.78276 0.0619346 5.14627 0.186063 5.45037 0.48933C6.04232 1.07964 6.63355 1.67137 7.22478 2.26168C7.67882 2.02048 8.10739 1.75741 8.56284 1.5557C12.4822 -0.182795 16.2496 0.111304 19.8557 2.4246C20.0162 2.52757 20.1315 2.54379 20.3048 2.46621C22.0389 1.68971 23.7822 0.934358 25.5113 0.147273C26.1018 -0.121437 26.698 -0.0636041 26.9993 0.667765V1.19601H27ZM7.47867 16.5724C7.52323 16.5371 7.55293 16.5188 7.57768 16.4941C9.71772 14.3607 11.8585 12.2279 13.9943 10.0902C14.0685 10.0162 14.1159 9.89909 14.1414 9.79401C14.4738 8.39122 15.0509 7.10127 15.9144 5.94392C16.1541 5.62231 16.4158 5.31622 16.6881 4.97628C14.4547 3.99666 12.2602 4.02275 10.0445 5.05527C10.1237 5.1392 10.1802 5.20267 10.2411 5.26262C10.8146 5.8353 11.3931 6.40305 11.961 6.98137C12.6081 7.64151 12.8854 8.43142 12.6951 9.34334C12.6251 9.67905 12.4617 9.99572 12.3351 10.3378C12.3938 10.4012 12.4709 10.4845 12.5339 10.5529C12.3337 10.7574 12.1407 10.9542 11.9285 11.1714C11.8146 11.0494 11.7015 10.926 11.5869 10.8047C11.5388 10.7532 11.4858 10.7066 11.4384 10.6537C11.234 10.4259 11.2333 10.2404 11.4334 9.99924C12.0883 9.21004 12.0558 8.28613 11.3316 7.56181C9.19509 5.42484 7.05293 3.2935 4.91289 1.16005C4.80186 1.04932 4.68021 0.895568 4.51543 1.05708C4.34641 1.22282 4.5126 1.33777 4.61869 1.45062C4.65475 1.48941 4.69294 1.52538 4.73043 1.56276C5.80328 2.63266 6.87683 3.70185 7.94897 4.77316C8.23328 5.05739 8.23186 5.25345 7.94968 5.53909C7.71418 5.77747 7.47726 6.01374 7.23963 6.2493C6.92068 6.56597 6.73963 6.56456 6.41502 6.24154C5.34146 5.17164 4.26861 4.10174 3.19577 3.03184C3.15192 2.98812 3.10807 2.94509 3.06493 2.90137C2.96451 2.79981 2.85206 2.72364 2.72193 2.84353C2.58897 2.96625 2.66182 3.0798 2.76224 3.18348C2.80538 3.22791 2.84923 3.27093 2.89237 3.31466C3.97158 4.3909 5.0508 5.46715 6.13001 6.5434C6.44189 6.85513 6.44402 7.03991 6.1392 7.34671C5.92845 7.55899 5.71558 7.77058 5.50342 7.98145C5.1102 8.37288 4.95744 8.37288 4.56352 7.98004C3.47158 6.8918 2.38034 5.80286 1.28769 4.71462C1.18656 4.61377 1.07411 4.49317 0.929133 4.6307C0.776374 4.77528 0.883164 4.8987 0.996319 5.01013C1.02814 5.04117 1.05855 5.0722 1.08967 5.10323C3.17313 7.18097 5.27357 9.24248 7.33157 11.3449C8.14063 12.1708 9.26298 12.1658 9.9214 11.5142C10.0749 11.3625 10.28 11.3294 10.4504 11.4747C10.6534 11.6482 10.8288 11.8548 10.9992 12.0304C10.8083 12.2293 10.6265 12.4183 10.4348 12.6172C10.357 12.5516 10.2778 12.4846 10.1923 12.4127C10.1371 12.4409 10.0819 12.4663 10.0296 12.4959C9.00131 13.0778 7.81814 12.9473 6.94968 12.1454C6.64557 11.8647 6.36056 11.5635 6.06565 11.273C6.01332 11.2215 5.95533 11.1756 5.86268 11.0952C5.69649 13.1624 6.23892 14.9623 7.47797 16.571L7.47867 16.5724ZM14.2701 15.183C14.3429 15.281 14.4002 15.384 14.4808 15.4637C16.9299 17.9096 19.3811 20.3541 21.8331 22.7978C21.9017 22.8663 21.9689 22.9368 22.0445 22.9967C22.2751 23.1794 22.6018 23.1801 22.8288 23.0052C23.041 22.8416 23.1329 22.5164 23.0085 22.2668C22.9434 22.137 22.8352 22.0249 22.7305 21.9198C20.263 19.4548 17.7927 16.992 15.3231 14.5285C15.2581 14.4636 15.1958 14.3952 15.1322 14.3282L15.2121 14.3614C15.3903 14.1604 15.5685 13.9594 15.7977 13.7012C16.8847 14.7951 17.9674 15.8847 19.0502 16.9737C21.5035 14.4037 21.5452 10.5261 20.128 8.27344C16.705 11.687 13.2729 15.1097 9.84644 18.526C11.8712 19.7391 14.7842 19.7066 16.5898 18.7319C15.5997 17.7516 14.6187 16.7804 13.6315 15.8036C13.8288 15.6118 14.0169 15.4291 14.2715 15.1816L14.2701 15.183ZM26.1662 0.908968C26.1528 0.888515 26.14 0.868768 26.1266 0.848315C26.0247 0.882873 25.9201 0.909674 25.8218 0.953401C24.0757 1.72356 22.3225 2.48032 20.5855 3.27093C17.6011 4.62858 15.7227 6.9038 14.9568 10.0909C14.9087 10.2905 14.7906 10.5007 14.6449 10.6467C10.9836 14.3113 7.31389 17.9674 3.64768 21.6278C3.51826 21.7569 3.39166 21.9 3.30821 22.0601C3.18657 22.2929 3.19506 22.5397 3.38247 22.7485C3.52886 22.9121 3.86833 22.9735 4.09818 22.8663C4.21487 22.8127 4.32236 22.7266 4.4143 22.6356C5.30964 21.7491 6.20073 20.8583 7.09253 19.969C13.3747 13.704 19.6563 7.4398 25.9371 1.17415C26.0198 1.09163 26.0898 0.997128 26.1662 0.908263V0.908968ZM20.7807 7.56393C22.6244 11.1728 22.2482 14.5229 19.6987 17.6007C20.186 18.0852 20.6768 18.5725 21.1669 19.0599C24.6436 15.4588 24.8897 9.85819 22.2715 6.0758C21.7751 6.57161 21.2772 7.06812 20.7807 7.56323V7.56393ZM7.64487 20.6609C11.007 22.9502 15.524 22.934 18.7729 20.9536C18.321 20.5036 17.8642 20.0656 17.4299 19.6072C17.28 19.4485 17.169 19.4457 16.9801 19.5324C15.2496 20.3216 13.4518 20.5113 11.5911 20.1023C10.7248 19.9119 9.91504 19.5811 9.16327 19.1509C8.65266 19.6587 8.15407 20.1545 7.64487 20.6616V20.6609ZM19.1414 2.99023C15.7913 0.728418 11.1117 0.790482 7.90866 2.89925C8.41008 3.39929 8.91362 3.90144 9.4306 4.417C9.50697 4.37962 9.60033 4.33378 9.69439 4.28793C10.8747 3.70961 12.1208 3.41551 13.4377 3.41269C14.7453 3.40987 15.9837 3.70044 17.1626 4.25972C17.2411 4.2971 17.3769 4.31756 17.4349 4.27524C18.0091 3.8556 18.5728 3.42186 19.1421 2.98953L19.1414 2.99023ZM6.84925 17.1571C6.79692 17.0865 6.72054 17.0012 6.66396 16.9046C6.3153 16.3065 5.9136 15.731 5.63708 15.1012C5.00129 13.6533 4.82661 12.1299 5.08262 10.5642C5.1102 10.3949 5.07131 10.2715 4.94188 10.1466C4.47866 9.70162 4.02887 9.24178 3.57342 8.78829C3.52179 8.7368 3.46309 8.69166 3.40086 8.63877C2.2877 11.7533 2.89873 15.8502 5.37046 18.6374C5.85915 18.1487 6.34783 17.6592 6.84854 17.1578L6.84925 17.1571Z" fill="#242424"/>
    </symbol>

    <symbol id="bussines" width="25" height="20" viewBox="0 0 25 20">
        <path d="M22.3144 17.0757C22.7209 17.0757 23.0844 17.0723 23.4478 17.0757C23.9301 17.0809 24.1041 17.2575 24.1059 17.7366C24.1076 18.196 24.1076 18.6563 24.1059 19.1158C24.1041 19.5838 23.937 19.7509 23.4668 19.7509C20.4479 19.7518 17.4299 19.7509 14.4111 19.7509C9.84538 19.7509 5.28051 19.7509 0.71478 19.7509C0.138573 19.7509 0.000765596 19.6112 0.000765596 19.0292C0.000765596 18.5912 -0.000956995 18.1523 0.000765596 17.7143C0.00248819 17.2583 0.180776 17.0809 0.647599 17.0749C1.01193 17.0706 1.37625 17.074 1.7914 17.074C1.7914 16.9172 1.7914 16.7835 1.7914 16.6497C1.79398 13.0472 1.76728 9.44371 1.80863 5.84198C1.84049 3.11968 3.95153 0.664813 6.63533 0.133382C7.03325 0.054525 7.44236 0.0210963 7.84803 0.00138189C8.25629 -0.0183325 8.43802 0.172811 8.43888 0.579956C8.44146 1.94796 8.43974 3.31683 8.4406 4.68483C8.4406 4.73797 8.44663 4.79026 8.45266 4.88797C8.59736 4.85026 8.72655 4.82112 8.85316 4.78255C10.2054 4.37112 11.5542 3.95111 12.9107 3.55425C13.1123 3.49511 13.3612 3.48825 13.561 3.54825C16.2784 4.3634 18.9906 5.19398 21.7037 6.02198C22.2842 6.19941 22.3152 6.24227 22.3152 6.85856C22.3152 10.1191 22.3152 13.3797 22.3152 16.6403V17.0757H22.3144ZM12.729 4.66426C12.6231 4.69083 12.5421 4.70712 12.4629 4.73026C11.5413 5.00883 10.6231 5.29769 9.69723 5.56169C9.46124 5.62855 9.37942 5.72284 9.38028 5.97312C9.39061 8.38685 9.38631 10.8014 9.38717 13.2152C9.38717 13.3172 9.39578 13.42 9.40181 13.5443C10.5396 13.3883 11.6386 13.2383 12.729 13.0892V4.66426ZM13.7574 4.65312V13.09C14.8461 13.2366 15.9218 13.3814 16.9933 13.5254C17.0088 13.4732 17.02 13.4534 17.02 13.4329C17.0217 10.9009 17.0217 8.36885 17.0286 5.83684C17.0286 5.65169 16.9356 5.60884 16.7883 5.56512C16.1113 5.36455 15.4378 5.15283 14.7625 4.94798C14.4378 4.8494 14.1114 4.75683 13.7574 4.65312ZM21.2894 14.1049C21.3075 14.0474 21.3196 14.0269 21.3196 14.0072C21.3221 11.7211 21.3196 9.43514 21.3299 7.14913C21.3308 6.93913 21.2093 6.90656 21.0629 6.86198C20.2533 6.61941 19.4445 6.37598 18.6349 6.1317C18.4463 6.07512 18.2577 6.01598 18.0544 5.95427V13.6677C19.137 13.8143 20.2068 13.9583 21.2886 14.1049H21.2894ZM8.36653 5.97312C7.28216 6.30312 6.23138 6.62284 5.1849 6.94084V14.11C6.2598 13.9652 7.30886 13.8229 8.36653 13.6797V5.97312ZM4.17288 17.056C4.17288 16.912 4.17288 16.7869 4.17288 16.6609C4.17288 13.3694 4.17288 10.0771 4.17288 6.7857C4.17288 6.27484 4.24609 6.17884 4.72928 6.03312C5.54923 5.78541 6.36919 5.54026 7.1857 5.28312C7.27958 5.25398 7.41566 5.15798 7.42083 5.08598C7.44581 4.73883 7.43203 4.38912 7.43203 4.01883C7.26924 4.03169 7.15124 4.03083 7.03755 4.0514C4.53893 4.50826 2.78361 6.60484 2.78017 9.14457C2.77672 11.6671 2.78017 14.1889 2.78017 16.7115C2.78017 16.8246 2.78017 16.9377 2.78017 17.0569H4.17288V17.056ZM23.08 18.1009H1.02657V18.7283H23.08V18.1009ZM11.2252 17.0595H15.2603V14.3372C13.9055 13.9866 12.5714 14.0123 11.2252 14.3329V17.0595ZM7.41222 1.03682C4.78957 1.22624 2.89127 3.60397 2.86027 5.61141C3.99718 4.05054 5.51047 3.18568 7.41222 2.99368V1.03682ZM16.3111 14.446V17.056H18.827C18.827 16.3343 18.8313 15.6315 18.8192 14.9286C18.8184 14.8686 18.715 14.7674 18.6487 14.758C17.877 14.6466 17.1027 14.5497 16.3111 14.446ZM10.1778 14.4494C9.382 14.5523 8.60683 14.6483 7.83425 14.7589C7.76965 14.7683 7.66888 14.872 7.66802 14.9337C7.65596 15.6357 7.66027 16.3386 7.66027 17.0475H10.1778V14.4486V14.4494ZM19.8605 14.92V17.05H21.3109V15.118C20.8303 15.052 20.3584 14.9877 19.8605 14.9192V14.92ZM5.17285 17.0492H6.62671V14.9234C6.12544 14.9929 5.64656 15.0589 5.17285 15.124V17.0492Z" fill="#242424"/>
    </symbol>

    <symbol id="farming" width="25" height="25" viewBox="0 0 25 25">
        <path d="M13.001 0C13.1956 0.127578 13.2508 0.306841 13.2475 0.535827C13.2363 1.3026 13.2436 2.07003 13.2429 2.83746C13.2429 3.17636 13.118 3.33992 12.8603 3.34319C12.5987 3.34647 12.4672 3.18225 12.4672 2.84858C12.4672 2.17013 12.4672 1.49233 12.4672 0.7936H0.796126V24.0239H2.35354C2.35354 23.9271 2.35354 23.84 2.35354 23.7537C2.35354 22.752 2.35288 21.751 2.35354 20.7494C2.35354 20.3346 2.47647 20.2129 2.88801 20.2129C4.85959 20.2129 6.83183 20.1972 8.80275 20.2214C9.45688 20.2293 10.1248 20.0768 10.7671 20.3261C11.0307 20.9725 10.8466 21.6464 10.8841 22.3058C10.9157 22.8691 10.8907 23.4357 10.8907 24.0206H12.4665C12.4665 23.9336 12.4665 23.8472 12.4665 23.7609C12.4665 22.2018 12.4665 20.6434 12.4665 19.0843C12.4665 19.0196 12.4645 18.9548 12.4672 18.8907C12.4777 18.6525 12.6447 18.4831 12.8629 18.4883C13.0726 18.4936 13.2344 18.6558 13.2409 18.8828C13.2475 19.1171 13.2429 19.3513 13.2429 19.5855C13.2429 21.1603 13.2429 22.735 13.2429 24.3104C13.2429 24.6938 13.1213 24.8136 12.7334 24.8136C8.66009 24.8136 4.58677 24.8123 0.514096 24.8181C0.288604 24.8181 0.123594 24.7534 0 24.5728V0H13.001ZM6.22372 20.9987H3.16873V24.0272H6.22372V20.9987ZM7.02774 20.9928V24.0259H10.0742V20.9928H7.02774Z" fill="#242424"/>
        <path d="M9.04492 10.9682C9.04821 6.62397 12.6022 3.06095 16.9326 3.06226C21.3714 3.06356 24.9339 6.59257 24.9274 10.9832C24.9214 15.351 21.3537 18.8943 16.9648 18.8917C12.595 18.8891 9.04164 15.3339 9.04492 10.9688V10.9682ZM16.9753 18.1001C20.9184 18.1099 24.1417 14.9231 24.1503 11.0068C24.1588 7.06166 20.9671 3.87679 16.9832 3.8552C13.0788 3.83361 9.84039 7.0296 9.82922 10.9132C9.81804 14.9002 12.9894 18.0896 16.9753 18.1001Z" fill="#242424"/>
        <path d="M3.95974 5.47816C3.58633 5.47816 3.21358 5.48077 2.84017 5.47816C2.53119 5.47554 2.3905 5.34011 2.38918 5.0385C2.3859 4.29594 2.3859 3.55271 2.38918 2.81014C2.3905 2.52555 2.53842 2.38096 2.82702 2.37965C3.57318 2.37638 4.31935 2.37638 5.06617 2.37965C5.35806 2.38096 5.50137 2.52097 5.50269 2.80949C5.50663 3.56056 5.50663 4.31164 5.50269 5.06206C5.50137 5.33946 5.36069 5.47423 5.07997 5.4775C4.70656 5.48208 4.33381 5.47881 3.9604 5.47881L3.95974 5.47816ZM4.70656 4.69306V3.16475H3.18137V4.69306H4.70656Z" fill="#242424"/>
        <path d="M9.28119 5.478C8.91633 5.478 8.5508 5.48062 8.18594 5.47735C7.87827 5.47408 7.74547 5.34126 7.74416 5.0305C7.74153 4.29578 7.74153 3.56106 7.74416 2.82634C7.74547 2.51885 7.88287 2.37949 8.1866 2.37819C8.93276 2.37491 9.67892 2.37491 10.4251 2.37819C10.7104 2.37949 10.8563 2.52735 10.8577 2.81522C10.861 3.55779 10.861 4.30101 10.8577 5.04358C10.8563 5.33341 10.7143 5.47342 10.4244 5.47669C10.0431 5.48127 9.66183 5.478 9.28053 5.478H9.28119ZM8.52714 4.68309H10.0622V3.17113H8.52714V4.68309Z" fill="#242424"/>
        <path d="M5.50302 8.64594C5.50302 9.00905 5.50565 9.37281 5.50236 9.73591C5.49907 10.0447 5.36759 10.1795 5.05795 10.1815C4.31968 10.1854 3.5814 10.1854 2.84378 10.1815C2.52297 10.1801 2.38951 10.0421 2.3882 9.72021C2.38623 8.99335 2.38623 8.26713 2.3882 7.54027C2.38886 7.22427 2.53086 7.08099 2.84707 7.08033C3.5768 7.07771 4.30718 7.07771 5.03691 7.08033C5.36825 7.08099 5.50039 7.21772 5.50236 7.55597C5.50433 7.91907 5.50236 8.28283 5.50236 8.64594H5.50302ZM4.7036 9.39309V7.87393H3.17907V9.39309H4.7036Z" fill="#242424"/>
        <path d="M3.95267 14.8873C3.57926 14.8873 3.20651 14.8912 2.8331 14.886C2.52609 14.8814 2.39001 14.7434 2.38869 14.4378C2.38606 13.7031 2.38606 12.9684 2.38869 12.2337C2.39001 11.9347 2.53661 11.7842 2.83442 11.7822C3.57269 11.7783 4.31031 11.779 5.04858 11.7822C5.35559 11.7836 5.50088 11.9242 5.5022 12.2226C5.50548 12.9651 5.50548 13.7083 5.5022 14.4509C5.50088 14.7447 5.36611 14.8808 5.07159 14.8853C4.69884 14.8912 4.32543 14.8866 3.95202 14.8866L3.95267 14.8873ZM4.70936 14.0976V12.5817H3.1835V14.0976H4.70936Z" fill="#242424"/>
        <path d="M2.38771 18.0297C2.38771 17.6666 2.38508 17.3028 2.38837 16.9397C2.391 16.6427 2.5376 16.4883 2.8341 16.4864C3.58026 16.4818 4.32642 16.4811 5.07259 16.4864C5.35725 16.4883 5.50056 16.6408 5.50188 16.928C5.50516 17.6705 5.50516 18.4131 5.50188 19.1563C5.50056 19.4481 5.36514 19.5888 5.07127 19.5914C4.32511 19.5966 3.57895 19.5966 2.83278 19.5914C2.52511 19.5894 2.391 19.4481 2.38837 19.1432C2.38508 18.7716 2.38771 18.4007 2.38771 18.0291V18.0297ZM4.71101 17.2852H3.18055V18.7952H4.71101V17.2852Z" fill="#242424"/>
        <path d="M10.8556 18.0318C10.8556 18.4034 10.8582 18.7743 10.8549 19.1459C10.8523 19.4489 10.7155 19.5902 10.4079 19.5921C9.66171 19.5967 8.91554 19.5974 8.16938 19.5921C7.87552 19.5902 7.74206 19.4495 7.74075 19.1558C7.73746 18.4132 7.73746 17.6706 7.74075 16.9274C7.74206 16.6402 7.88538 16.4897 8.17135 16.4871C8.91752 16.4812 9.66368 16.4819 10.4098 16.4871C10.705 16.489 10.8516 16.6454 10.8543 16.9424C10.8575 17.3055 10.8549 17.6693 10.8549 18.0324L10.8556 18.0318ZM8.52635 18.792H10.0588V17.2892H8.52635V18.792Z" fill="#242424"/>
        <path d="M8.5195 7.86455C8.5195 8.49721 8.52081 9.10893 8.5195 9.72064C8.51884 10.0026 8.39065 10.1623 8.16121 10.178C7.93835 10.1937 7.75033 10.0537 7.74835 9.83187C7.73981 9.03303 7.74046 8.2342 7.74835 7.43536C7.75033 7.22404 7.90942 7.08992 8.1336 7.08142C8.32753 7.07357 8.52278 7.07553 8.71738 7.08076C8.97311 7.08665 9.15259 7.2561 9.14733 7.47724C9.14207 7.69379 8.97903 7.841 8.72724 7.85604C8.6707 7.85932 8.61482 7.86128 8.52081 7.8652L8.5195 7.86455Z" fill="#242424"/>
        <path d="M8.52089 14.1119C8.63462 14.1119 8.71614 14.1028 8.79569 14.1139C9.0008 14.1414 9.15464 14.3206 9.14872 14.5123C9.14215 14.7125 8.99028 14.8715 8.77268 14.882C8.55442 14.8924 8.33484 14.8924 8.11658 14.882C7.89109 14.8715 7.74909 14.7348 7.74712 14.5143C7.74054 13.7318 7.74054 12.9487 7.74712 12.1662C7.74909 11.9398 7.92199 11.7821 8.13368 11.7835C8.35259 11.7848 8.51695 11.9516 8.51958 12.195C8.52484 12.7354 8.52155 13.2764 8.52155 13.8169C8.52155 13.9045 8.52155 13.9922 8.52155 14.1113L8.52089 14.1119Z" fill="#242424"/>
        <path d="M17.1465 5.6233C18.5113 5.62527 19.5401 6.81992 19.3416 8.17879C19.3232 8.30375 19.3541 8.36067 19.4698 8.41889C20.918 9.15099 21.2356 10.8324 20.1646 12.0369C20.1048 12.1043 20.0739 12.2207 20.0739 12.3143C20.0719 13.3879 19.4638 14.3064 18.4803 14.7029C18.3909 14.7389 18.2976 14.7716 18.2029 14.7847C17.9893 14.8141 17.8335 14.7225 17.7782 14.5132C17.7243 14.311 17.7927 14.1475 17.9926 14.0539C18.0221 14.0402 18.0517 14.0271 18.082 14.0153C18.9254 13.6856 19.3508 13.0281 19.2804 12.1265C19.262 11.8936 19.3258 11.7333 19.5013 11.5776C19.951 11.1778 20.1153 10.6695 19.9569 10.0885C19.8024 9.51999 19.4119 9.16735 18.8386 9.02145C18.4232 8.91547 18.3384 8.76237 18.4843 8.35805C18.6966 7.7725 18.5375 7.13199 18.0846 6.7473C17.6211 6.35344 16.9768 6.28147 16.4496 6.56411C15.9033 6.85656 15.6153 7.43622 15.7041 8.06756C15.7396 8.3201 15.6377 8.51572 15.3872 8.55956C14.4373 8.72704 13.862 9.84122 14.3965 10.7761C14.4576 10.8828 14.4406 11.0889 14.3761 11.2014C13.8456 12.1285 14.5878 13.206 15.6081 13.0673C15.8816 13.03 16.3056 13.4965 16.234 13.7615C16.2011 13.8838 16.0847 14.033 15.973 14.0703C15.8625 14.1076 15.708 14.0258 15.5766 13.9826C15.4845 13.9525 15.401 13.8681 15.311 13.8622C13.9639 13.7811 13.0764 12.4261 13.5333 11.1523C13.5767 11.0306 13.5793 10.869 13.5386 10.7474C13.1665 9.64757 13.6674 8.45422 14.7259 7.96027C14.8357 7.90924 14.9021 7.86737 14.9086 7.72343C14.9625 6.53663 15.9447 5.61938 17.1458 5.62134L17.1465 5.6233Z" fill="#242424"/>
        <path d="M17.4275 11.3432C17.4781 11.2542 17.5287 11.1652 17.58 11.0769C17.7253 10.8277 17.933 10.7485 18.1408 10.863C18.3505 10.9788 18.405 11.1986 18.2722 11.4453C18.0119 11.9281 17.7404 12.4044 17.486 12.8898C17.4255 13.005 17.3874 13.1463 17.3861 13.2758C17.3788 14.4535 17.3828 15.6318 17.3808 16.8094C17.3808 17.1038 17.2197 17.2746 16.9673 17.2628C16.7582 17.253 16.6116 17.1104 16.6051 16.8866C16.5958 16.5961 16.6011 16.3056 16.6011 16.0152C16.6011 14.0223 16.6011 12.0295 16.6011 10.0367C16.6011 9.9562 16.5985 9.87507 16.6037 9.7946C16.6175 9.56234 16.7694 9.40859 16.9831 9.40532C17.204 9.40205 17.3762 9.56496 17.3795 9.80572C17.3861 10.3134 17.3815 10.8218 17.3815 11.3295C17.3966 11.334 17.4124 11.338 17.4275 11.3425V11.3432Z" fill="#242424"/>
    </symbol>

    <symbol id="it" width="25" height="25" viewBox="0 0 25 25">
        <path d="M13.1543 19.5388C12.9158 19.5546 12.7349 19.5461 12.5647 19.5836C12.3653 19.6272 12.2076 19.5916 12.0725 19.4439C11.934 19.2929 11.7955 19.1413 11.6379 18.9692C11.3291 19.283 11.0463 19.5599 10.7793 19.85C10.7296 19.9041 10.715 20.0161 10.725 20.0959C10.982 22.0929 9.56429 23.7873 7.54835 23.8862C5.90274 23.9673 4.34987 22.6612 4.16901 21.0354C4.14185 20.7915 4.13125 20.5429 4.14781 20.2983C4.16438 20.0557 4.22533 19.8157 4.27037 19.55C4.16968 19.55 4.08024 19.55 3.99081 19.55C3.14746 19.55 2.30412 19.554 1.46078 19.5487C0.598886 19.5441 0 18.9408 0 18.0831C0 12.5437 0 7.00499 0 1.46627C0 0.586111 0.590936 0 1.47734 0C8.52949 0 15.581 0 22.6331 0C23.5169 0 24.1071 0.588089 24.1071 1.46956C24.1071 7.00037 24.1071 12.5312 24.1071 18.0613C24.1071 18.952 23.5142 19.5467 22.6185 19.5494C21.4446 19.5527 20.2707 19.55 19.0968 19.55C19.0067 19.55 18.9172 19.55 18.7602 19.55C18.9312 19.7254 19.061 19.8638 19.1968 19.997C19.6725 20.4631 19.9467 21.0235 19.9335 21.6907C19.9136 22.6672 19.4578 23.399 18.5588 23.7965C17.6724 24.1888 16.7993 24.078 16.0911 23.4181C15.0232 22.4232 14.0089 21.3716 12.9754 20.3398C12.7886 20.1533 12.7959 19.9449 12.9688 19.7465C13.0152 19.6937 13.0622 19.6417 13.155 19.5381L13.1543 19.5388ZM11.5206 13.9078C11.5484 13.8966 11.5676 13.8946 11.5782 13.8841C12.2116 13.2577 12.8456 12.6327 13.4723 12.0005C13.5193 11.953 13.5299 11.8554 13.5319 11.7802C13.5405 11.4124 13.4975 11.0379 13.5518 10.6779C13.8188 8.90375 15.6883 7.63857 17.4372 8.02557C17.6214 8.06645 17.7923 8.11788 17.8566 8.32094C17.9242 8.53389 17.8149 8.68025 17.6724 8.82002C17.22 9.2657 16.7748 9.71864 16.3183 10.1604C16.2156 10.2599 16.1871 10.3529 16.2256 10.4861C16.3124 10.7854 16.3799 11.0906 16.4773 11.3867C16.5045 11.4691 16.5966 11.5633 16.6787 11.5897C16.9682 11.6833 17.2696 11.74 17.5605 11.831C17.7188 11.8805 17.8182 11.8442 17.9301 11.7308C18.3866 11.266 18.8477 10.8052 19.3147 10.3516C19.6069 10.0681 19.958 10.1689 20.0349 10.5625C20.0865 10.8269 20.1302 11.1012 20.1183 11.3688C20.0322 13.3705 18.3164 14.7873 16.3143 14.5275C16.2448 14.5183 16.1447 14.5124 16.1043 14.5513C15.7049 14.9383 15.3146 15.3352 14.9006 15.7512C15.051 15.8903 15.1881 16.0096 15.3166 16.1369C15.5995 16.419 15.5995 16.5858 15.3266 16.87C15.2868 16.9115 15.2259 16.9504 15.2159 16.9992C15.202 17.0698 15.2 17.1726 15.2411 17.2148C15.2815 17.2563 15.3855 17.2557 15.4564 17.2432C15.5054 17.2346 15.5459 17.1752 15.5876 17.1357C15.8784 16.8614 16.0407 16.8608 16.3249 17.1423C16.8172 17.6295 17.3028 18.124 17.8029 18.6039C17.8871 18.6844 18.0288 18.745 18.1448 18.7457C19.6082 18.7549 21.071 18.7529 22.5344 18.751C23.0962 18.751 23.3141 18.5307 23.3141 17.9723C23.3141 13.4377 23.3141 8.90309 23.3141 4.36913V4.09223C23.1744 4.09223 23.0677 4.09223 22.9617 4.09223C18.8119 4.09223 14.6621 4.09223 10.5123 4.09223C10.1983 4.09223 9.82928 3.99795 9.58615 4.13047C9.33507 4.2676 9.18667 4.61637 9.029 4.89261C8.86868 5.17413 8.65072 5.25588 8.33737 5.25457C5.92327 5.24468 3.50984 5.24929 1.09575 5.24929C0.999689 5.24929 0.902966 5.24929 0.791006 5.24929C0.791006 5.3495 0.791006 5.41411 0.791006 5.47938C0.791006 9.65996 0.791006 13.8405 0.791006 18.0211C0.791006 18.5143 1.02089 18.7483 1.51908 18.7503C2.51082 18.7549 3.50322 18.7562 4.49496 18.745C4.59698 18.7437 4.72881 18.6718 4.79572 18.5901C5.61588 17.5926 6.65797 17.1614 7.94782 17.3203C8.03593 17.3308 8.15849 17.2853 8.22474 17.2227C8.55466 16.9122 8.87066 16.5852 9.19396 16.2674C9.398 16.067 9.60602 15.8712 9.80212 15.6833C9.76966 15.6252 9.76502 15.6088 9.75376 15.5976C8.60302 14.4504 7.45295 13.3026 6.29824 12.16C6.23994 12.102 6.14587 12.0651 6.06239 12.0499C5.82721 12.0064 5.58938 11.9761 5.35221 11.9464C5.15545 11.9213 5.02031 11.8244 4.93153 11.6458C4.64534 11.0722 4.3565 10.4992 4.06103 9.93027C3.94576 9.70809 3.97491 9.52612 4.15311 9.35273C4.49562 9.01847 4.8315 8.67827 5.17135 8.34138C5.42376 8.09084 5.53638 8.07238 5.84974 8.22864C6.26246 8.43434 6.67652 8.63872 7.0866 8.84969C7.88025 9.25713 7.75438 9.08044 7.89085 9.98236C7.91338 10.1314 7.93126 10.3166 8.026 10.4129C9.18402 11.5871 10.3553 12.7481 11.5199 13.9091L11.5206 13.9078ZM23.3155 3.28724C23.3155 2.67937 23.3168 2.1038 23.3155 1.52824C23.3141 1.0252 23.077 0.789174 22.5708 0.788514C15.5598 0.788514 8.54936 0.788514 1.53829 0.788514C1.03083 0.788514 0.794319 1.02388 0.792994 1.52692C0.791669 2.42422 0.792331 3.32086 0.792994 4.21816C0.792994 4.28936 0.801606 4.36056 0.807568 4.44825H1.11761C3.21769 4.44825 5.31776 4.44891 7.41717 4.44759C7.73053 4.44759 8.0949 4.5333 8.34333 4.40408C8.58116 4.28013 8.71962 3.93862 8.8647 3.67292C9.02834 3.37294 9.25557 3.28064 9.59079 3.2813C14.0467 3.28987 18.5032 3.28724 22.9591 3.28724C23.0657 3.28724 23.1717 3.28724 23.3155 3.28724ZM16.5707 8.79101C16.466 8.79101 16.4329 8.7864 16.4011 8.79101C14.9735 9.0244 14.0334 10.4122 14.358 11.8224C14.4163 12.0756 14.3607 12.2576 14.1758 12.4402C12.3249 14.2744 10.4779 16.1131 8.63615 17.9565C8.44601 18.147 8.25853 18.2031 7.9942 18.1437C6.25385 17.7508 4.66853 19.2553 4.96665 21.0071C5.19785 22.3632 6.55329 23.3086 7.88953 23.0443C9.3079 22.7641 10.2109 21.429 9.8995 20.0531C9.8412 19.7953 9.87499 19.6028 10.0704 19.4089C11.928 17.5695 13.781 15.7255 15.6287 13.8761C15.8148 13.6902 16.0016 13.6441 16.2521 13.7008C17.4989 13.9849 18.7609 13.2867 19.1776 12.0855C19.2366 11.9161 19.2644 11.7361 19.3068 11.5614C19.2843 11.5495 19.2617 11.5383 19.2392 11.5264C18.906 11.8666 18.5708 12.2055 18.2395 12.5477C18.0885 12.7039 17.9262 12.7593 17.7049 12.696C17.1901 12.5483 16.6708 12.4184 16.1527 12.2839C15.9486 12.2312 15.8307 12.1046 15.7777 11.9009C15.6499 11.4084 15.5253 10.9146 15.3782 10.428C15.2981 10.1643 15.3604 9.97313 15.5571 9.78918C15.8864 9.48063 16.2011 9.15626 16.5707 8.79101ZM14.3713 16.3294C13.6525 17.0487 12.9449 17.7574 12.2301 18.4721C12.2805 18.5189 12.3507 18.5842 12.4136 18.6422C12.9151 18.3916 13.3305 18.4121 13.6545 18.7193C14.0652 19.1089 14.0771 19.5625 13.8294 19.9997C14.6588 20.8264 15.4683 21.6327 16.2395 22.4001C16.9331 21.7092 17.6426 21.0038 18.3601 20.2897C17.6307 19.5645 16.8735 18.8175 16.1242 18.0627C16.003 17.9407 15.9155 17.9104 15.7473 17.9914C15.3729 18.1714 14.9423 18.0725 14.6555 17.7792C14.3779 17.4957 14.2818 17.0651 14.4673 16.7085C14.5674 16.5166 14.5031 16.425 14.3719 16.3294H14.3713ZM10.3752 15.0721C10.5726 14.8697 10.7607 14.6772 10.9787 14.4543C10.9158 14.4036 10.8396 14.3528 10.7753 14.2895C9.78622 13.3078 8.81104 12.3116 7.80605 11.3471C7.39333 10.9509 7.04751 10.552 7.07732 9.9428C7.07865 9.91906 7.07268 9.89071 7.0601 9.87159C7.00975 9.79578 6.97132 9.69293 6.89845 9.65403C6.52878 9.45492 6.15315 9.26636 5.77156 9.09033C5.70664 9.06066 5.57944 9.0811 5.52379 9.12857C5.34227 9.28285 5.18725 9.46877 5.00838 9.62634C4.89046 9.7305 4.89642 9.82017 4.96532 9.94675C5.13359 10.2579 5.30915 10.5671 5.44297 10.8928C5.54036 11.1295 5.69273 11.2126 5.93056 11.2172C6.37177 11.2264 6.71097 11.4091 7.02631 11.7354C8.0578 12.8022 9.12241 13.8372 10.1744 14.8835C10.238 14.9468 10.3043 15.0068 10.3745 15.0728L10.3752 15.0721ZM16.9258 23.0146C17.4319 23.3574 18.2203 23.244 18.7099 22.7417C19.1809 22.2584 19.2776 21.4692 18.9424 21.0044C18.2713 21.6736 17.5976 22.3454 16.9265 23.0146H16.9258Z" fill="#242424"/>
        <path d="M4.48878 3.20992C4.1529 3.20926 3.89453 2.94752 3.90049 2.61392C3.90579 2.2935 4.1635 2.0344 4.48282 2.02913C4.80478 2.02385 5.087 2.29878 5.09031 2.61985C5.09363 2.94291 4.82002 3.21124 4.48944 3.21058L4.48878 3.20992Z" fill="#242424"/>
        <path d="M2.9243 3.20945C2.58577 3.21077 2.33006 2.95629 2.33204 2.61939C2.33337 2.2904 2.60499 2.02273 2.93159 2.02866C3.24495 2.03394 3.51193 2.30095 3.51789 2.61345C3.52319 2.94112 3.2582 3.20748 2.92497 3.2088L2.9243 3.20945Z" fill="#242424"/>
        <path d="M6.65725 2.63455C6.65261 2.96881 6.39093 3.2167 6.04975 3.20945C5.73375 3.2022 5.46941 2.9365 5.46875 2.624C5.46809 2.30622 5.75229 2.02668 6.07227 2.02932C6.40087 2.03195 6.66122 2.3016 6.65725 2.63455Z" fill="#242424"/>
        <path d="M7.45356 22.1324C7.24687 22.1324 7.04017 22.1278 6.83414 22.1337C6.62943 22.1397 6.49163 22.0494 6.39292 21.8753C6.19882 21.5318 6.00206 21.1896 5.79867 20.8514C5.69003 20.6708 5.68473 20.504 5.79602 20.3207C6.00471 19.9759 6.20412 19.6265 6.4022 19.2751C6.50223 19.0977 6.64997 19.0206 6.84871 19.0212C7.24554 19.0212 7.64171 19.0212 8.03853 19.0186C8.24854 19.0166 8.39959 19.1023 8.50294 19.2863C8.70102 19.637 8.90506 19.9845 9.10845 20.3319C9.20981 20.5053 9.20451 20.6721 9.10315 20.8435C8.90241 21.183 8.70168 21.5232 8.51022 21.8681C8.40688 22.054 8.26179 22.1417 8.04847 22.1337C7.85039 22.1265 7.65231 22.1324 7.45356 22.1324ZM7.43302 21.3591C7.59666 21.3353 7.81925 21.3683 7.90008 21.2767C8.07497 21.0789 8.21144 20.8297 8.29624 20.5785C8.35851 20.3959 7.8537 19.8137 7.68609 19.8249C7.44694 19.8407 7.15081 19.7952 6.98452 19.9179C6.79373 20.059 6.61552 20.357 6.62016 20.5824C6.62546 20.8204 6.82553 21.0769 6.99645 21.2786C7.06998 21.3657 7.28264 21.3353 7.43302 21.3591Z" fill="#242424"/>
    </symbol>

    <symbol id='nav' width="25" height="23" viewBox="0 0 25 23">
        <path d="M14.4297 11.7779C14.4297 8.66128 16.3841 6.43298 18.9487 6.10179C21.7826 5.73645 24.3107 7.55294 24.8442 10.3507C25.0457 11.4082 24.8683 12.4432 24.5691 13.4593C23.9976 15.4007 23.0766 17.1859 22.033 18.9087C21.4272 19.9081 20.7653 20.8734 20.1165 21.8459C19.8355 22.2672 19.526 22.2642 19.237 21.8546C17.6387 19.5914 16.1973 17.2389 15.1851 14.6504C14.7581 13.5588 14.4363 12.4402 14.4297 11.7779ZM19.6873 20.962C20.1807 20.1892 20.6529 19.4803 21.0944 18.7526C22.1432 17.0225 23.1036 15.2489 23.6948 13.3031C23.9699 12.3967 24.1582 11.4728 23.9772 10.5214C23.5072 8.05772 21.2141 6.52885 18.7458 7.02565C16.6075 7.45562 15.0756 9.58079 15.331 11.7299C15.4288 12.5543 15.6346 13.3467 15.9258 14.1187C16.752 16.3085 17.9306 18.3124 19.2129 20.2611C19.356 20.4783 19.5049 20.6918 19.688 20.962H19.6873Z" fill="#242424"/>
        <path d="M2.55394 0C4.38944 0.0123472 5.58489 1.61167 5.15429 3.36497C4.87696 4.4951 4.33251 5.50467 3.72968 6.4859C3.50198 6.85632 3.25968 7.21802 3.00789 7.57173C2.7977 7.86734 2.45614 7.88259 2.25471 7.59497C1.34098 6.28399 0.488547 4.93887 0.0929845 3.36642C-0.298929 1.80632 0.580505 0.369689 2.1197 0.0457572C2.28756 0.0101683 2.46271 0.00871566 2.55321 0H2.55394ZM2.61962 6.59703C2.81887 6.27673 2.99475 6.01453 3.1502 5.74144C3.66546 4.83719 4.18655 3.93294 4.34127 2.88198C4.44928 2.14986 4.18363 1.55647 3.56401 1.15628C2.95315 0.761894 2.30142 0.760441 1.68837 1.15192C1.06584 1.54921 0.787774 2.14478 0.904545 2.87399C1.12422 4.24888 1.88105 5.3841 2.61962 6.5963V6.59703Z" fill="#242424"/>
        <path d="M10.9804 15.6757C10.9658 15.887 10.8162 16.0185 10.5812 16.0795C9.77472 16.2879 8.97046 16.5029 8.16255 16.707C7.85968 16.784 7.63635 16.6547 7.5714 16.3911C7.51228 16.1514 7.66116 15.9335 7.95017 15.8572C8.59825 15.6866 9.24779 15.5217 9.89588 15.3532C10.0798 15.3052 10.2615 15.2457 10.4469 15.2057C10.7301 15.1455 10.9818 15.3525 10.9804 15.6757Z" fill="#242424"/>
        <path d="M2.93676 18.1233C2.72292 18.1102 2.56455 18.0078 2.51712 17.7826C2.46457 17.5342 2.57039 17.3505 2.80612 17.2684C3.17322 17.1406 3.54616 17.0273 3.91983 16.919C4.38911 16.7825 4.86057 16.6518 5.33349 16.529C5.58601 16.4636 5.81518 16.6002 5.8867 16.8391C5.95019 17.0505 5.84218 17.2844 5.60645 17.3563C4.75839 17.6163 3.90669 17.8625 3.05572 18.1124C3.02142 18.1225 2.98347 18.1196 2.93676 18.124V18.1233Z" fill="#242424"/>
        <path d="M16.5876 21.2771C16.9876 21.2771 17.3882 21.2742 17.7882 21.2778C18.1027 21.2807 18.3034 21.4565 18.302 21.7165C18.3005 21.9794 18.1042 22.1487 17.7845 22.1465C17.0021 22.1421 16.2198 22.1327 15.4381 22.1247C15.3652 22.124 15.2922 22.1218 15.2207 22.1123C14.9455 22.0768 14.7915 21.917 14.793 21.6744C14.7944 21.4282 14.9747 21.2415 15.252 21.2342C15.6972 21.2234 16.1431 21.2313 16.5883 21.2313V21.2764L16.5876 21.2771Z" fill="#242424"/>
        <path d="M4.6984 8.11796C4.90932 8.11796 5.28226 8.11432 5.65447 8.11941C5.93545 8.12304 6.11425 8.29082 6.11936 8.54139C6.12447 8.79487 5.9515 8.97209 5.6749 8.98516C4.83999 9.02293 4.0058 9.0607 3.17089 9.09193C2.83444 9.10428 2.64396 8.95974 2.62644 8.69827C2.60747 8.41719 2.77605 8.24724 3.12345 8.22036C3.59418 8.18405 4.06565 8.15863 4.6984 8.11796Z" fill="#242424"/>
        <path d="M3.16648 11.7117C2.93294 11.7016 2.78041 11.581 2.73808 11.3449C2.69575 11.1082 2.83222 10.9084 3.09277 10.846C3.66495 10.7101 4.24005 10.5852 4.81442 10.4588C5.0881 10.3986 5.36251 10.3354 5.63911 10.2896C5.9055 10.2453 6.10912 10.3753 6.16459 10.6019C6.22297 10.8409 6.08941 11.0777 5.82741 11.1379C4.98082 11.3333 4.13131 11.5156 3.28325 11.7016C3.24822 11.7095 3.211 11.7081 3.16721 11.711L3.16648 11.7117Z" fill="#242424"/>
        <path d="M6.54066 12.6542C7.07634 12.6855 7.61203 12.7109 8.14699 12.7487C8.54547 12.777 8.77245 13.1445 8.55131 13.4205C8.46373 13.5294 8.2769 13.6224 8.13823 13.618C7.27486 13.5926 6.41221 13.5418 5.55029 13.4895C5.27515 13.4728 5.11459 13.2781 5.12991 13.0203C5.14378 12.7777 5.3204 12.6208 5.58605 12.6194C5.90425 12.6172 6.22245 12.6194 6.54066 12.6194V12.6542Z" fill="#242424"/>
        <path d="M0.553402 18.457C0.959182 18.4614 1.19199 18.8195 1.01757 19.0962C0.867954 19.3322 0.956992 19.4521 1.15185 19.5392C1.50582 19.6976 1.86708 19.8399 2.22907 19.9794C2.58157 20.1159 2.72608 20.4616 2.49181 20.6962C2.39474 20.7936 2.17871 20.8764 2.06486 20.8357C1.54888 20.6505 1.01465 20.474 0.552672 20.1885C-0.0625673 19.8094 -0.150146 19.1964 0.256364 18.6815C0.343943 18.5703 0.489177 18.5042 0.553402 18.457Z" fill="#242424"/>
        <path d="M10.1833 21.0227C10.9452 21.059 11.7064 21.0953 12.4676 21.1323C12.5216 21.1352 12.5764 21.1389 12.6304 21.1476C12.8894 21.1883 13.0529 21.3727 13.0383 21.6044C13.023 21.8354 12.8369 22.0315 12.5829 22.0199C11.6852 21.9799 10.7883 21.9291 9.89207 21.8645C9.6651 21.8477 9.54249 21.6676 9.54103 21.4468C9.53957 21.2108 9.67823 21.0597 9.91251 21.014C10.0001 20.9965 10.0935 21.011 10.184 21.011C10.184 21.0147 10.184 21.0183 10.184 21.0227H10.1833Z" fill="#242424"/>
        <path d="M8.78396 9.33519C8.62559 9.28653 8.46795 9.23278 8.30739 9.1892C7.96218 9.09551 7.80746 8.89287 7.87606 8.61397C7.93956 8.35758 8.1804 8.23629 8.50809 8.33725C8.80002 8.42658 9.10654 8.51519 9.35687 8.67934C9.92175 9.04975 9.92102 9.6889 9.35979 10.0622C9.08465 10.2453 8.76571 10.3687 8.45408 10.4871C8.21032 10.5801 7.96364 10.4573 7.88482 10.2525C7.79067 10.0063 7.90015 9.7717 8.1658 9.65985C8.37015 9.57342 8.57742 9.49207 8.78323 9.40855C8.78323 9.38385 8.78323 9.35843 8.78323 9.33374L8.78396 9.33519Z" fill="#242424"/>
        <path d="M2.86342 13.4099C2.21899 13.3133 1.57164 13.2291 0.930855 13.1136C0.752778 13.0816 0.568134 12.9829 0.426548 12.8659C0.0981291 12.5943 0.178409 12.0488 0.555727 11.8542C0.795108 11.7307 1.08339 11.8396 1.16586 12.1171C1.21038 12.2667 1.2819 12.3183 1.42056 12.3328C1.83583 12.3764 2.24964 12.4251 2.66491 12.4701C2.76416 12.481 2.86561 12.4766 2.96341 12.4941C3.23417 12.5427 3.40641 12.7504 3.37575 12.9792C3.34437 13.216 3.13345 13.3809 2.86342 13.4106V13.4099Z" fill="#242424"/>
        <path d="M7.14491 21.6721C6.34357 21.5741 5.5415 21.4789 4.74015 21.3765C4.44749 21.3395 4.28985 21.1455 4.31759 20.8797C4.34313 20.6335 4.53142 20.4824 4.82481 20.5129C5.55609 20.5885 6.28518 20.6785 7.01573 20.7628C7.11499 20.7744 7.21425 20.7846 7.3135 20.7926C7.61565 20.8165 7.81854 21.0126 7.79883 21.2647C7.7784 21.529 7.57332 21.6801 7.25511 21.6649C7.21862 21.6634 7.18286 21.659 7.14637 21.6561C7.14637 21.6619 7.14491 21.667 7.14418 21.6728L7.14491 21.6721Z" fill="#242424"/>
        <path d="M13.3951 14.4362C13.3937 14.7448 13.2171 14.9867 12.9689 15.0179C12.712 15.0506 12.561 14.9032 12.4646 14.5669C12.4427 14.4899 12.3537 14.3998 12.2763 14.3752C11.8465 14.2357 11.4108 14.1122 10.9765 13.9873C10.8721 13.9575 10.7605 13.951 10.6583 13.9169C10.4467 13.8464 10.3153 13.6285 10.3635 13.4273C10.4182 13.1978 10.57 13.0366 10.8079 13.0743C11.5706 13.1935 12.3274 13.3489 12.993 13.7709C13.2331 13.9234 13.3937 14.1355 13.3959 14.4362H13.3951Z" fill="#242424"/>
        <path d="M21.4209 11.2889C21.4165 12.2527 20.6356 13.0139 19.6547 13.0095C18.6863 13.0052 17.9214 12.228 17.9258 11.2519C17.9302 10.2881 18.7111 9.52764 19.692 9.532C20.6612 9.53636 21.4253 10.3128 21.4209 11.2889ZM19.6642 10.4014C19.2008 10.4072 18.7928 10.8219 18.7994 11.2795C18.806 11.7421 19.2205 12.1467 19.6825 12.1402C20.1474 12.1336 20.5532 11.7211 20.5473 11.2621C20.5407 10.7994 20.1269 10.3956 19.665 10.4014H19.6642Z" fill="#242424"/>
    </symbol>

    <symbol id="sec" width="22" height="26" viewBox="0 0 22 26">
        <path d="M10.8723 0.00491238C13.0727 0.00491238 15.2731 0.00631117 17.4742 0.0028142C17.6843 0.0028142 17.8488 0.0405815 17.9394 0.256694C18.5101 1.61492 19.5748 2.46678 20.8757 3.07036C21.0493 3.15079 21.2299 3.22073 21.4133 3.27668C21.6621 3.35291 21.7675 3.51447 21.7513 3.76556C21.7499 3.79144 21.7513 3.81801 21.7513 3.84389C21.738 6.55684 21.7478 9.27049 21.7021 11.9834C21.674 13.6333 21.4456 15.2636 20.9502 16.8477C20.2713 19.0166 18.9465 20.6902 17.0589 21.9484C15.6863 22.8632 14.2035 23.5724 12.7248 24.29C12.1984 24.546 11.6742 24.8068 11.1379 25.0411C11.003 25.0999 10.7964 25.1258 10.6734 25.0649C8.97337 24.2243 7.2621 23.4025 5.59581 22.5002C4.17549 21.7309 2.9393 20.7175 2.01585 19.3663C1.17392 18.1346 0.701651 16.7603 0.414213 15.3133C0.0895289 13.6809 0.0129258 12.0268 0.00519527 10.3692C-0.00464366 8.19692 0.00238414 6.0246 0.00308692 3.85158C0.00308692 3.43754 0.0340093 3.40117 0.435297 3.2494C1.63283 2.7962 2.66522 2.11918 3.3926 1.04421C3.54299 0.821805 3.67301 0.579815 3.77631 0.332229C3.87822 0.0853428 4.02932 -0.00138217 4.29707 1.66164e-05C6.48905 0.00910875 8.68032 0.00491238 10.8723 0.00491238ZM10.8793 0.680528C10.1519 0.680528 9.42386 0.680528 8.69648 0.680528C7.32887 0.680528 5.96126 0.678429 4.59295 0.685423C4.49948 0.685423 4.35541 0.73508 4.32027 0.80502C3.58938 2.25277 2.39184 3.16967 0.923729 3.77605C0.738898 3.85228 0.682676 3.9446 0.683378 4.13973C0.691109 6.20784 0.68127 8.27525 0.690406 10.3434C0.697434 11.9485 0.785281 13.5466 1.08256 15.1314C1.61527 17.9717 3.07002 20.1685 5.55435 21.6896C7.22064 22.7101 8.99727 23.5123 10.7542 24.3536C10.8322 24.3907 10.9594 24.376 11.0438 24.3397C11.372 24.1963 11.6924 24.0347 12.015 23.8787C13.5422 23.1409 15.0826 22.4282 16.5023 21.4896C18.0891 20.4398 19.3169 19.0928 20.0295 17.3121C20.7232 15.5797 20.9839 13.7613 21.0218 11.9177C21.0753 9.32714 21.0521 6.73519 21.0717 4.14393C21.0731 3.93131 21.0001 3.84599 20.8103 3.76766C19.4125 3.18996 18.2529 2.32271 17.5311 0.965881C17.4081 0.734381 17.2816 0.672834 17.0343 0.674233C14.9829 0.684724 12.9307 0.679828 10.8793 0.679828V0.680528Z" fill="#242424"/>
        <path d="M10.8706 1.98763C12.6676 1.98763 14.4653 1.99043 16.2623 1.98414C16.4865 1.98344 16.639 2.05338 16.7676 2.23872C17.4359 3.20528 18.3074 3.95223 19.3412 4.50545C19.6532 4.67261 19.7685 4.87473 19.765 5.22793C19.7481 7.06874 19.765 8.91024 19.753 10.751C19.7425 12.331 19.6272 13.8997 19.2709 15.4482C18.6918 17.9653 17.1724 19.7369 14.927 20.93C13.662 21.6022 12.3738 22.2316 11.0905 22.8674C10.9816 22.9212 10.8038 22.9296 10.6956 22.8793C9.04123 22.1036 7.38618 21.3301 5.84991 20.3286C3.94326 19.0857 2.87504 17.3093 2.40769 15.1258C2.10901 13.7284 2.01062 12.3135 1.99937 10.8909C1.98391 8.9627 1.99797 7.03447 1.99024 5.10623C1.98954 4.84676 2.08371 4.688 2.31281 4.5656C3.38666 3.9921 4.30028 3.23116 4.99322 2.22473C5.1155 2.04708 5.26519 1.98414 5.47884 1.98484C7.27585 1.99113 9.07356 1.98833 10.8706 1.98833V1.98763ZM10.8832 2.66675C9.17406 2.66675 7.46419 2.66395 5.75503 2.67374C5.63696 2.67374 5.47603 2.73738 5.40716 2.82691C4.7114 3.73542 3.86174 4.46419 2.86942 5.03C2.72183 5.11393 2.66912 5.20765 2.66983 5.3783C2.67685 7.06174 2.66702 8.74588 2.67615 10.4293C2.68458 11.982 2.74854 13.5297 3.08587 15.0558C3.5223 17.0288 4.49424 18.6346 6.22027 19.7614C7.66027 20.7013 9.2106 21.4273 10.7574 22.1631C10.8291 22.1973 10.95 22.1869 11.0231 22.1491C12.3829 21.4511 13.7604 20.7825 15.0901 20.0306C16.3284 19.3305 17.3418 18.3752 17.9679 17.0666C18.7087 15.5181 18.9764 13.8606 19.0193 12.1722C19.0769 9.90548 19.0573 7.63664 19.079 5.36851C19.0804 5.19226 19.0165 5.10763 18.871 5.0251C17.8927 4.46978 17.0522 3.75291 16.374 2.85558C16.2658 2.71221 16.1569 2.66325 15.9833 2.66395C14.2826 2.66954 12.5818 2.66744 10.8818 2.66744L10.8832 2.66675Z" fill="#242424"/>
        <path d="M10.6765 6.36322C13.4047 6.25202 15.9931 8.29005 16.1681 11.3492C16.3297 14.1741 14.2277 16.6702 11.2472 16.8982C8.30114 17.1234 5.75638 14.9 5.5849 11.9059C5.41764 8.98525 7.67426 6.49401 10.6765 6.36322ZM10.7342 7.03954C8.08539 7.14025 6.14009 9.33285 6.26308 11.8423C6.39169 14.4713 8.60123 16.3695 11.1235 16.224C13.7737 16.0708 15.6101 13.8838 15.4899 11.4282C15.3592 8.76354 13.1356 6.9703 10.7342 7.03954Z" fill="#242424"/>
        <path d="M10.3168 12.4739C11.0638 11.7108 11.7905 10.9688 12.5172 10.2274C12.572 10.1715 12.6233 10.1099 12.6865 10.0637C12.8404 9.95185 13.0014 9.95394 13.1377 10.0882C13.2656 10.2141 13.2719 10.3645 13.1722 10.5163C13.1672 10.5233 13.1616 10.5302 13.1553 10.5358C12.2881 11.422 11.4229 12.3095 10.5522 13.1921C10.4173 13.3292 10.2465 13.3257 10.1031 13.1949C9.60695 12.741 9.1136 12.2843 8.62517 11.8227C8.47477 11.6807 8.47126 11.5045 8.61533 11.3583C8.76713 11.2045 8.94634 11.2122 9.10587 11.3576C9.50575 11.722 9.90142 12.0899 10.3168 12.4739Z" fill="#242424"/>
    </symbol>

    <symbol id="service" width="25" height="20" viewBox="0 0 25 20">
        <path d="M9.89939 11.5779C7.10173 9.8695 7.16359 6.1586 9.12529 4.31085C11.0154 2.53033 14.0385 2.62754 15.7853 4.54658C17.5997 6.54014 17.3913 9.91405 14.7589 11.5852C14.8671 11.6257 14.9526 11.6565 15.0381 11.6889C16.9062 12.3953 18.3494 13.5626 19.0974 15.4565C19.2586 15.864 19.3587 16.3022 19.436 16.7348C19.5589 17.4201 19.2268 18.0576 18.5935 18.4157C17.8154 18.8555 16.9599 19.0613 16.0848 19.1812C13.8 19.4947 11.507 19.4695 9.21565 19.2743C8.15421 19.1836 7.11068 18.9754 6.14042 18.504C5.33213 18.1111 4.96584 17.3464 5.18236 16.4723C5.68052 14.4642 6.93812 13.0603 8.73784 12.102C9.11064 11.9036 9.50868 11.7529 9.89858 11.5787L9.89939 11.5779ZM12.8843 18.2083C13.4345 18.1751 14.5155 18.1313 15.5924 18.0382C16.3828 17.9693 17.1618 17.813 17.8943 17.4873C18.2883 17.3115 18.3835 17.1171 18.285 16.7016C18.0832 15.847 17.6811 15.0968 17.086 14.4512C15.1862 12.3912 11.9848 11.8274 9.39472 13.1203C7.85304 13.8898 6.78102 15.062 6.39438 16.7785C6.31461 17.1309 6.39763 17.3277 6.74276 17.4549C7.19778 17.6226 7.66175 17.7838 8.13549 17.8834C9.52577 18.1767 10.9413 18.1824 12.8851 18.2075L12.8843 18.2083ZM12.3389 11.0319C14.2298 11.0384 15.7487 9.53008 15.7503 7.64345C15.7527 5.76005 14.2412 4.24767 12.3495 4.23957C10.4757 4.23147 8.93157 5.76329 8.9275 7.63292C8.92343 9.50416 10.4505 11.0255 12.3381 11.0319H12.3389Z" fill="#242424"/>
        <path d="M19.6283 8.54517C19.8432 8.62779 20.0223 8.69098 20.1973 8.76469C22.2738 9.64037 23.7341 11.0799 24.3462 13.284C24.64 14.342 24.1809 15.3084 23.1407 15.6761C22.4154 15.9329 21.647 16.0682 20.8965 16.2537C20.8224 16.2723 20.7402 16.2626 20.6613 16.2586C20.2706 16.2416 20.0394 16.0237 20.0337 15.6697C20.028 15.3035 20.2583 15.0589 20.645 15.0281C21.3727 14.9706 22.0711 14.7988 22.7377 14.5016C23.104 14.3379 23.2074 14.1354 23.104 13.7514C22.5603 11.7344 21.2107 10.4845 19.2742 9.81453C18.8827 9.67925 18.4651 9.60716 18.0533 9.54154C17.4517 9.44596 17.1188 9.04254 17.2547 8.52491C17.3418 8.19198 17.5803 7.99594 17.901 7.95706C18.6914 7.86066 19.2783 7.42728 19.7634 6.85295C21.4647 4.83832 20.3495 1.77467 17.7431 1.32427C16.5743 1.12257 15.5543 1.47413 14.7094 2.31174C14.5279 2.49157 14.3773 2.72163 14.0713 2.72082C13.823 2.72082 13.6227 2.64062 13.5112 2.41219C13.3997 2.18375 13.4095 1.95774 13.5764 1.75279C14.3154 0.848765 15.2523 0.25499 16.4106 0.0686754C18.9902 -0.346076 21.2954 1.22301 21.7675 3.76661C22.1118 5.62165 21.4655 7.14538 19.9686 8.3062C19.8725 8.38072 19.77 8.44634 19.6283 8.54517Z" fill="#242424"/>
        <path d="M4.80867 8.53046C4.02969 8.03794 3.44118 7.41176 3.05209 6.60818C1.69762 3.81184 3.43222 0.51165 6.52129 0.0580147C8.1981 -0.188244 9.61524 0.352877 10.7442 1.61657C11.0063 1.90982 11.0063 2.27435 10.7662 2.5044C10.5212 2.73851 10.1313 2.72069 9.85862 2.4315C9.32628 1.86607 8.70846 1.45861 7.93762 1.28931C5.83022 0.826764 3.80828 2.44365 3.81642 4.59355C3.82212 6.03303 4.63936 7.24408 5.97511 7.77872C6.10941 7.83218 6.25756 7.86378 6.40245 7.87836C6.82084 7.9221 7.12689 8.21291 7.15538 8.61308C7.18469 9.02297 6.94375 9.36158 6.51478 9.43449C5.79929 9.55599 5.09275 9.701 4.43342 10.0145C2.85674 10.7662 1.75786 11.9303 1.29551 13.6379C1.16935 14.1029 1.2483 14.3159 1.71472 14.4577C2.38625 14.6626 3.0757 14.8149 3.7627 14.9648C4.13713 15.0466 4.37074 15.254 4.35772 15.5691C4.34307 15.9126 4.10294 16.1418 3.70246 16.124C2.6801 16.077 1.69844 15.8348 0.799799 15.3447C0.161636 14.9972 -0.124886 14.2301 0.0509342 13.4937C0.535254 11.4596 1.79856 10.0388 3.61618 9.06996C3.9898 8.87068 4.38865 8.7192 4.80948 8.53046H4.80867Z" fill="#242424"/>
    </symbol>

    <symbol id="line-word" width="97" height="4" viewBox="0 0 97 4">
        <path d="M9.45474 3.28328C8.34933 3.68905 6.28158 3.76244 5.1355 3.76244C2.44878 3.76244 0 3.09853 0 1.8441C0 0.737303 2.08131 0 5.1355 0C6.95326 0 8.16409 0.118103 9.45474 0.508689C8.95475 1.0469 9.29661 0.678251 8.79662 1.21647C7.9412 0.958325 6.54513 0.773578 5.14906 0.773578C2.95028 0.773578 1.68523 1.12789 1.56625 1.79939C1.44728 2.50042 2.94877 2.95006 5.14906 2.95006C6.49242 2.95006 7.9141 2.86148 8.78457 2.59575L9.45625 3.28159L9.45474 3.28328Z" fill="#070707"/>
        <path d="M18.267 0.0742188V0.841048H11.7475V1.47543H16.9884V2.24985H11.7339V2.988H18.2655V3.76242H10.2324V0.0742188H18.2655H18.267Z" fill="#070707"/>
        <path d="M20.5561 2.6261V3.76242H19.041V0.0742188H23.9792C28.9174 0.0742188 28.7066 2.62694 23.9928 2.62694H20.5561V2.6261ZM20.5561 1.84408H23.8091C26.8376 1.84408 26.8376 0.855389 23.8091 0.855389H20.5561V1.84408Z" fill="#070707"/>
        <path d="M33.1745 3.76245H28.2363V0.0742437L31.4893 0.0666504C31.9893 0.0666504 32.4637 0.0809914 32.8854 0.0809914C36.2694 0.102925 37.3628 1.04016 35.4667 1.71166C38.5088 2.22794 37.8643 3.76245 33.1745 3.76245ZM32.2785 0.811546H29.7499V1.55644H32.292C35.7694 1.55644 35.7559 0.811546 32.2785 0.811546ZM29.7499 2.98803H33.0029C36.7302 2.98803 36.7167 2.14696 33.0029 2.14696H29.7499V2.98803Z" fill="#070707"/>
        <path d="M39.5634 0.0742188V2.70793L44.6462 0.0742188H46.5694V3.76242H45.0544V0.929626L39.5619 3.76242H38.0469V0.0742188H39.5619H39.5634Z" fill="#070707"/>
        <path d="M56.6809 3.28328C55.5739 3.68905 53.5062 3.76244 52.3616 3.76244C49.6749 3.76244 47.2246 3.09853 47.2246 1.8441C47.2246 0.737303 49.3059 0 52.3616 0C54.1794 0 55.3902 0.118103 56.6809 0.508689C56.1809 1.0469 56.5227 0.678251 56.0227 1.21647C55.1673 0.958325 53.7712 0.773578 52.3752 0.773578C50.1764 0.773578 48.9113 1.12789 48.7924 1.79939C48.6734 2.50042 50.1749 2.95006 52.3752 2.95006C53.7185 2.95006 55.1402 2.86148 56.0107 2.59575L56.6824 3.28159L56.6809 3.28328Z" fill="#070707"/>
        <path d="M60.4742 0.0742188H69.1262V0.84864H65.5569V3.76242H64.0419V0.84864H60.4727V0.0742188H60.4742Z" fill="#070707"/>
        <path d="M71.3022 2.6261V3.76242H69.7871V0.0742188H74.7253C79.6635 0.0742188 79.4527 2.62694 74.7389 2.62694H71.3022V2.6261ZM71.3022 1.84408H74.5551C77.5837 1.84408 77.5837 0.855389 74.5551 0.855389H71.3022V1.84408Z" fill="#070707"/>
        <path d="M87.0248 0.0742188V0.841048H80.5053V1.47543H85.7462V2.24985H80.4917V2.988H87.0233V3.76242H78.9902V0.0742188H87.0233H87.0248Z" fill="#070707"/>
        <path d="M89.3571 2.98041V3.76242H87.8691V0.0742188H89.3842V1.66018C90.2667 1.12871 91.6492 0.523855 93.2953 0.243781C94.0859 0.111337 95.0332 0.0742188 95.8901 0.0742188L95.7983 0.804772C94.3887 0.804772 92.717 1.09244 91.7019 1.66018L96.5874 3.76242H94.1507L90.4098 2.11741C89.8571 2.42701 89.3556 2.75939 89.3556 2.98041H89.3571Z" fill="#070707"/>
    </svg>
</svg>