<svg width="917" height="133" viewBox="0 0 917 133" fill="none" xmlns="http://www.w3.org/2000/svg">
<path d="M0.000147987 65.3661C-0.0879482 23.2376 39.1705 -7.68415 80.3717 1.68186C96.127 5.26134 108.901 13.0277 118.786 25.6394C125.713 34.4768 125.101 43.8614 117.442 49.8241C110.023 55.6013 101.26 54.0063 94.1518 45.5862C76.3656 24.5266 44.1502 28.2637 34.0192 52.5643C28.5387 65.7046 31.8353 80.8849 42.2724 90.5802C52.8625 100.419 68.8403 102.853 81.299 95.7315C86.4178 92.8057 91.073 88.7255 95.1718 84.4366C101.538 77.783 110.208 76.2344 117.173 81.395C123.928 86.3979 125.922 95.5414 121.035 102.626C105.224 125.554 76.3285 138.912 47.5443 130.432C19.7198 122.239 0.0604243 94.8459 0.000147987 65.3568V65.3661Z" fill="#070707"/>
<path d="M173.087 66.0711C172.985 76.2995 167.023 84.7706 157.592 88.0858C147.725 91.5587 137.585 89.0595 131.116 80.6394C124.171 71.5979 115.871 66.2102 104.099 67.8933C95.4144 69.1313 89.5536 74.8853 84.036 80.9779C76.3114 89.5 65.6054 91.9482 55.3909 87.293C45.9785 83.0041 40.6046 72.6319 42.144 61.7265C43.5814 51.5538 52.1406 43.3701 63.0506 42.0486C70.7706 41.112 77.2851 43.843 82.7424 49.2725C85.0376 51.5584 87.226 53.9602 89.6325 56.1162C103.005 68.0926 118.477 66.7295 129.776 52.4672C136.11 44.4736 143.867 40.3424 154.235 42.4706C165.863 44.8631 173.213 54.0946 173.092 66.0711H173.087Z" fill="#FC4243"/>
<path d="M261.17 84.0434C252.849 89.4959 237.285 90.4821 228.659 90.4821C208.436 90.4821 190.004 81.5609 190.004 64.7046C190.004 49.832 205.67 39.9246 228.659 39.9246C242.341 39.9246 251.455 41.5116 261.17 46.76C257.406 53.9923 259.98 49.0385 256.216 56.2708C249.777 52.802 239.269 50.3195 228.761 50.3195C212.211 50.3195 202.689 55.0805 201.793 64.1038C200.898 73.5238 212.199 79.5658 228.761 79.5658C238.872 79.5658 249.573 78.3755 256.126 74.8048L261.181 84.0207L261.17 84.0434Z" fill="#FC4243"/>
<path d="M327.488 40.9221V51.2263H278.416V59.7509H317.864V70.1571H278.314V80.0759H327.477V90.4821H267.012V40.9221H327.477H327.488Z" fill="#FC4243"/>
<path d="M344.73 75.2129V90.4821H333.326V40.9221H370.496C407.666 40.9221 406.079 75.2242 370.598 75.2242H344.73V75.2129ZM344.73 64.7046H369.215C392.012 64.7046 392.012 51.419 369.215 51.419H344.73V64.7046Z" fill="#FC4243"/>
<path d="M439.692 90.4831H402.521V40.9231L427.007 40.821C430.77 40.821 434.341 41.0138 437.515 41.0138C462.987 41.3085 471.216 53.9025 456.945 62.9258C479.843 69.8633 474.991 90.4831 439.692 90.4831ZM432.947 50.8305H413.914V60.84H433.049C459.223 60.84 459.121 50.8305 432.947 50.8305ZM413.914 80.0769H438.399C466.455 80.0769 466.353 68.7751 438.399 68.7751H413.914V80.0769Z" fill="#FC4243"/>
<path d="M487.769 40.9221V76.3124L526.027 40.9221H540.503V90.4821H529.099V52.4166L487.757 90.4821H476.354V40.9221H487.757H487.769Z" fill="#FC4243"/>
<path d="M616.64 84.0434C608.308 89.4959 592.744 90.4821 584.129 90.4821C563.906 90.4821 545.463 81.5609 545.463 64.7046C545.463 49.832 561.129 39.9246 584.129 39.9246C597.812 39.9246 606.925 41.5116 616.64 46.76C612.877 53.9923 615.45 49.0385 611.687 56.2708C605.248 52.802 594.74 50.3195 584.231 50.3195C567.681 50.3195 558.159 55.0805 557.263 64.1038C556.368 73.5238 567.67 79.5658 584.231 79.5658C594.343 79.5658 605.044 78.3755 611.596 74.8048L616.652 84.0207L616.64 84.0434Z" fill="#FC4243"/>
<path d="M645.183 40.9221H710.307V51.3284H683.441V90.4821H672.038V51.3284H645.172V40.9221H645.183Z" fill="#FC4243"/>
<path d="M726.667 75.2129V90.4821H715.264V40.9221H752.434C789.604 40.9221 788.017 75.2242 752.536 75.2242H726.667V75.2129ZM726.667 64.7046H751.153C773.949 64.7046 773.949 51.419 751.153 51.419H726.667V64.7046Z" fill="#FC4243"/>
<path d="M845.037 40.9221V51.2263H795.964V59.7509H835.413V70.1571H795.862V80.0759H845.026V90.4821H784.561V40.9221H845.026H845.037Z" fill="#FC4243"/>
<path d="M862.577 79.9739V90.4821H851.377V40.9221H862.781V62.2334C869.423 55.0918 879.83 46.9641 892.22 43.2006C898.171 41.4209 905.301 40.9221 911.751 40.9221L911.06 50.7389C900.449 50.7389 887.867 54.6044 880.226 62.2334L917 90.4821H898.658L870.5 68.3774C866.34 72.5376 862.565 77.0039 862.565 79.9739H862.577Z" fill="#FC4243"/>
</svg>
